<?xml version="1.0" standalone="no"?>
<!DOCTYPE svg PUBLIC "-//W3C//DTD SVG 20010904//EN"
 "http://www.w3.org/TR/2001/REC-SVG-20010904/DTD/svg10.dtd">
<svg version="1.0" xmlns="http://www.w3.org/2000/svg"
 width="512.000000pt" height="512.000000pt" viewBox="0 0 512.000000 512.000000"
 preserveAspectRatio="xMidYMid meet">
<metadata>
Created by potrace 1.14, written by Peter Selinger 2001-2017
</metadata>
<g transform="translate(0.000000,512.000000) scale(0.100000,-0.100000)"
fill="#000000" stroke="none">
<path d="M0 2560 l0 -2560 2560 0 2560 0 0 2560 0 2560 -2560 0 -2560 0 0
-2560z m2934 1704 c9 -8 16 -20 16 -25 0 -5 15 -51 34 -102 19 -51 98 -265
176 -477 78 -212 152 -414 165 -450 14 -36 40 -109 60 -162 19 -54 51 -140 69
-190 19 -51 83 -223 142 -383 59 -159 129 -351 156 -425 27 -74 64 -175 82
-225 50 -138 194 -528 201 -547 6 -14 22 -18 83 -20 l77 -3 3 -279 c2 -217 -1
-281 -10 -288 -7 -4 -178 -8 -379 -7 -405 0 -383 -3 -409 64 -7 17 -79 228
-161 469 -82 242 -150 441 -152 442 -3 3 -396 5 -934 4 l-201 0 -82 -252 c-45
-139 -116 -359 -158 -488 l-77 -235 -360 -2 c-198 -2 -365 -1 -372 2 -13 4
-11 12 62 210 20 55 54 147 75 205 21 58 66 179 100 270 34 91 72 194 85 230
59 165 97 269 115 315 11 28 35 93 54 145 19 52 50 138 69 190 20 52 99 268
177 480 77 212 148 403 156 425 9 22 44 119 79 215 35 96 80 218 99 270 20 52
36 98 36 102 0 4 -89 9 -197 10 l-198 3 -3 250 c-1 137 0 255 3 262 3 10 139
13 654 13 577 0 651 -2 665 -16z"/>
<path d="M2443 3338 c-23 -68 -70 -202 -104 -298 -127 -364 -212 -609 -249
-717 l-39 -113 450 0 c247 0 449 2 449 5 0 2 -12 35 -26 72 -14 38 -54 147
-89 243 -35 96 -100 274 -145 395 -114 309 -155 422 -176 483 -10 28 -21 52
-24 52 -3 0 -24 -55 -47 -122z"/>
</g>
</svg>
